<mxfile host="app.diagrams.net" agent="Mozilla/5.0 (Windows NT 10.0; Win64; x64) AppleWebKit/537.36 (KHTML, like Gecko) Chrome/139.0.0.0 Safari/537.36" version="28.1.0">
  <diagram id="prtHgNgQTEPvFCAcTncT" name="Page-1">
    <mxGraphModel dx="1123" dy="656" grid="1" gridSize="10" guides="1" tooltips="1" connect="1" arrows="1" fold="1" page="1" pageScale="1" pageWidth="827" pageHeight="1169" math="0" shadow="0">
      <root>
        <mxCell id="0" />
        <mxCell id="1" parent="0" />
        <mxCell id="E1QTNphe9JhFKRzoQSfT-1" value="solution tester service" style="rounded=0;whiteSpace=wrap;html=1;" parent="1" vertex="1">
          <mxGeometry x="827" y="151" width="130" height="60" as="geometry" />
        </mxCell>
        <mxCell id="6lvuWyY8wGujHDRmP9Fm-2" style="edgeStyle=orthogonalEdgeStyle;rounded=0;orthogonalLoop=1;jettySize=auto;html=1;" parent="1" source="E1QTNphe9JhFKRzoQSfT-2" target="E1QTNphe9JhFKRzoQSfT-10" edge="1">
          <mxGeometry relative="1" as="geometry" />
        </mxCell>
        <mxCell id="E1QTNphe9JhFKRzoQSfT-2" value="user" style="rounded=0;whiteSpace=wrap;html=1;" parent="1" vertex="1">
          <mxGeometry x="80" y="151" width="120" height="60" as="geometry" />
        </mxCell>
        <mxCell id="E1QTNphe9JhFKRzoQSfT-5" value="db qustions" style="strokeWidth=2;html=1;shape=mxgraph.flowchart.database;whiteSpace=wrap;" parent="1" vertex="1">
          <mxGeometry x="515" y="30" width="90" height="60" as="geometry" />
        </mxCell>
        <mxCell id="6lvuWyY8wGujHDRmP9Fm-15" style="edgeStyle=orthogonalEdgeStyle;rounded=0;orthogonalLoop=1;jettySize=auto;html=1;" parent="1" source="E1QTNphe9JhFKRzoQSfT-10" target="E1QTNphe9JhFKRzoQSfT-14" edge="1">
          <mxGeometry relative="1" as="geometry" />
        </mxCell>
        <mxCell id="E1QTNphe9JhFKRzoQSfT-10" value="firebase security service" style="rounded=0;whiteSpace=wrap;html=1;" parent="1" vertex="1">
          <mxGeometry x="300" y="151" width="120" height="60" as="geometry" />
        </mxCell>
        <mxCell id="6lvuWyY8wGujHDRmP9Fm-16" style="edgeStyle=orthogonalEdgeStyle;rounded=0;orthogonalLoop=1;jettySize=auto;html=1;" parent="1" source="E1QTNphe9JhFKRzoQSfT-14" target="E1QTNphe9JhFKRzoQSfT-5" edge="1">
          <mxGeometry relative="1" as="geometry" />
        </mxCell>
        <mxCell id="6lvuWyY8wGujHDRmP9Fm-17" style="edgeStyle=orthogonalEdgeStyle;rounded=0;orthogonalLoop=1;jettySize=auto;html=1;" parent="1" source="E1QTNphe9JhFKRzoQSfT-14" target="6lvuWyY8wGujHDRmP9Fm-5" edge="1">
          <mxGeometry relative="1" as="geometry" />
        </mxCell>
        <mxCell id="E1QTNphe9JhFKRzoQSfT-14" value="controller qustions" style="rounded=0;whiteSpace=wrap;html=1;" parent="1" vertex="1">
          <mxGeometry x="500" y="151" width="120" height="60" as="geometry" />
        </mxCell>
        <mxCell id="E1QTNphe9JhFKRzoQSfT-20" value="users" style="strokeWidth=2;html=1;shape=mxgraph.flowchart.database;whiteSpace=wrap;" parent="1" vertex="1">
          <mxGeometry x="330" y="30" width="60" height="60" as="geometry" />
        </mxCell>
        <mxCell id="6lvuWyY8wGujHDRmP9Fm-18" style="edgeStyle=orthogonalEdgeStyle;rounded=0;orthogonalLoop=1;jettySize=auto;html=1;" parent="1" source="6lvuWyY8wGujHDRmP9Fm-5" target="E1QTNphe9JhFKRzoQSfT-1" edge="1">
          <mxGeometry relative="1" as="geometry" />
        </mxCell>
        <mxCell id="6lvuWyY8wGujHDRmP9Fm-5" value="qustions&amp;nbsp;&lt;br&gt;queue" style="strokeWidth=2;html=1;shape=mxgraph.flowchart.direct_data;whiteSpace=wrap;" parent="1" vertex="1">
          <mxGeometry x="680" y="151" width="90" height="60" as="geometry" />
        </mxCell>
        <mxCell id="6lvuWyY8wGujHDRmP9Fm-14" style="edgeStyle=orthogonalEdgeStyle;rounded=0;orthogonalLoop=1;jettySize=auto;html=1;entryX=0.5;entryY=1;entryDx=0;entryDy=0;entryPerimeter=0;" parent="1" source="E1QTNphe9JhFKRzoQSfT-10" target="E1QTNphe9JhFKRzoQSfT-20" edge="1">
          <mxGeometry relative="1" as="geometry" />
        </mxCell>
      </root>
    </mxGraphModel>
  </diagram>
</mxfile>
